<mxfile host="app.diagrams.net" modified="2024-05-31T06:50:33.806Z" agent="Mozilla/5.0 (Windows NT 10.0; Win64; x64) AppleWebKit/537.36 (KHTML, like Gecko) Chrome/125.0.0.0 Safari/537.36" version="21.6.6" etag="wU4v61PgqD9lE5XDeLOO" type="github">
  <diagram name="Trang-1" id="RQQgzCmyKQHMisjLy8Nh">
    <mxGraphModel>
      <root>
        <mxCell id="0" />
        <mxCell id="1" parent="0" />
      </root>
    </mxGraphModel>
  </diagram>
</mxfile>
